<svg xmlns="http://www.w3.org/2000/svg" viewBox="0 0 24 24" width="1em" height="1em" fill="none" stroke="currentColor" stroke-width="2" stroke-linecap="round" stroke-linejoin="round"><path d="M 5.0,3.0 h 14.0 a 2.0,2.0 0 0 1 2.0,2.0 v 14.0 a 2.0,2.0 0 0 1 -2.0,2.0 h -14.0 a 2.0,2.0 0 0 1 -2.0,-2.0 v -14.0 a 2.0,2.0 0 0 1 2.0,-2.0 Z" /><path d="M 3.0,9.0 L 21.0,9.0"/><path d="M 3.0,15.0 L 21.0,15.0"/><path d="M 12.0,3.0 L 12.0,9.0"/><path d="M 7.5,9.0 L 7.5,15.0"/><path d="M 16.5,9.0 L 16.5,15.0"/><path d="M 12.0,15.0 L 12.0,21.0"/></svg>
